
<svg width="80" height="100" viewBox="0 0 80 100" fill="none" xmlns="http://www.w3.org/2000/svg">
  <!-- 本子封面（浅灰色硬皮） -->
  <rect x="3" y="3" width="74" height="94" rx="2" ry="2" fill="#E0E0E0"/>
  <!-- 书脊（深灰色，增强层次） -->
  <rect x="39" y="3" width="2" height="94" fill="#C9C9C9"/>
  <!-- 左侧内页（白色） -->
  <rect x="5" y="5" width="34" height="90" fill="#FFFFFF"/>
  <!-- 右侧内页（白色） -->
  <rect x="41" y="5" width="34" height="90" fill="#FFFFFF"/>
  <!-- 左侧内页横线（浅灰色细线条，均匀分布） -->
  <line x1="8" y1="15" x2="36" y2="15" stroke="#EEEEEE" stroke-width="0.8"/>
  <line x1="8" y1="22" x2="36" y2="22" stroke="#EEEEEE" stroke-width="0.8"/>
  <line x1="8" y1="29" x2="36" y2="29" stroke="#EEEEEE" stroke-width="0.8"/>
  <line x1="8" y1="36" x2="36" y2="36" stroke="#EEEEEE" stroke-width="0.8"/>
  <line x1="8" y1="43" x2="36" y2="43" stroke="#EEEEEE" stroke-width="0.8"/>
  <line x1="8" y1="50" x2="36" y2="50" stroke="#EEEEEE" stroke-width="0.8"/>
  <line x1="8" y1="57" x2="36" y2="57" stroke="#EEEEEE" stroke-width="0.8"/>
  <line x1="8" y1="64" x2="36" y2="64" stroke="#EEEEEE" stroke-width="0.8"/>
  <line x1="8" y1="71" x2="36" y2="71" stroke="#EEEEEE" stroke-width="0.8"/>
  <line x1="8" y1="78" x2="36" y2="78" stroke="#EEEEEE" stroke-width="0.8"/>
  <line x1="8" y1="85" x2="36" y2="85" stroke="#EEEEEE" stroke-width="0.8"/>
  <line x1="8" y1="92" x2="36" y2="92" stroke="#EEEEEE" stroke-width="0.8"/>
  <!-- 右侧内页横线（浅灰色细线条，与左侧对称） -->
  <line x1="44" y1="15" x2="72" y2="15" stroke="#EEEEEE" stroke-width="0.8"/>
  <line x1="44" y1="22" x2="72" y2="22" stroke="#EEEEEE" stroke-width="0.8"/>
  <line x1="44" y1="29" x2="72" y2="29" stroke="#EEEEEE" stroke-width="0.8"/>
  <line x1="44" y1="36" x2="72" y2="36" stroke="#EEEEEE" stroke-width="0.8"/>
  <line x1="44" y1="43" x2="72" y2="43" stroke="#EEEEEE" stroke-width="0.8"/>
  <line x1="44" y1="50" x2="72" y2="50" stroke="#EEEEEE" stroke-width="0.8"/>
  <line x1="44" y1="57" x2="72" y2="57" stroke="#EEEEEE" stroke-width="0.8"/>
  <line x1="44" y1="64" x2="72" y2="64" stroke="#EEEEEE" stroke-width="0.8"/>
  <line x1="44" y1="71" x2="72" y2="71" stroke="#EEEEEE" stroke-width="0.8"/>
  <line x1="44" y1="78" x2="72" y2="78" stroke="#EEEEEE" stroke-width="0.8"/>
  <line x1="44" y1="85" x2="72" y2="85" stroke="#EEEEEE" stroke-width="0.8"/>
  <line x1="44" y1="92" x2="72" y2="92" stroke="#EEEEEE" stroke-width="0.8"/>
</svg>

